<svg width="16" height="20" viewBox="0 0 16 20" fill="none" xmlns="http://www.w3.org/2000/svg">
<path d="M11.3335 3.33329H13.0002C13.4422 3.33329 13.8661 3.50889 14.1787 3.82145C14.4912 4.13401 14.6668 4.55793 14.6668 4.99996V16.6666C14.6668 17.1087 14.4912 17.5326 14.1787 17.8451C13.8661 18.1577 13.4422 18.3333 13.0002 18.3333H3.00016C2.55814 18.3333 2.13421 18.1577 1.82165 17.8451C1.50909 17.5326 1.3335 17.1087 1.3335 16.6666V4.99996C1.3335 4.55793 1.50909 4.13401 1.82165 3.82145C2.13421 3.50889 2.55814 3.33329 3.00016 3.33329H4.66683M5.50016 1.66663H10.5002C10.9604 1.66663 11.3335 2.03972 11.3335 2.49996V4.16663C11.3335 4.62686 10.9604 4.99996 10.5002 4.99996H5.50016C5.03993 4.99996 4.66683 4.62686 4.66683 4.16663V2.49996C4.66683 2.03972 5.03993 1.66663 5.50016 1.66663Z" stroke="#344054" stroke-width="1.66667" stroke-linecap="round" stroke-linejoin="round"/>
</svg>
