<svg width="20" height="16" viewBox="0 0 20 16" fill="none" xmlns="http://www.w3.org/2000/svg">
<path d="M18.3332 8.00004H1.6665M18.3332 8.00004V13C18.3332 13.4421 18.1576 13.866 17.845 14.1786C17.5325 14.4911 17.1085 14.6667 16.6665 14.6667H3.33317C2.89114 14.6667 2.46722 14.4911 2.15466 14.1786C1.8421 13.866 1.6665 13.4421 1.6665 13V8.00004M18.3332 8.00004L15.4582 2.25837C15.3202 1.9807 15.1075 1.74702 14.844 1.58361C14.5805 1.4202 14.2766 1.33354 13.9665 1.33337H6.03317C5.7231 1.33354 5.41922 1.4202 5.15571 1.58361C4.89219 1.74702 4.67948 1.9807 4.5415 2.25837L1.6665 8.00004M4.99984 11.3334H5.00817M8.33317 11.3334H8.3415" stroke="#344054" stroke-width="1.66667" stroke-linecap="round" stroke-linejoin="round"/>
</svg>
