<svg width="20" height="20" viewBox="0 0 20 20" fill="none" xmlns="http://www.w3.org/2000/svg">
<path d="M4.99984 4.99996H5.00817M4.99984 15H5.00817M3.33317 1.66663H16.6665C17.587 1.66663 18.3332 2.41282 18.3332 3.33329V6.66663C18.3332 7.5871 17.587 8.33329 16.6665 8.33329H3.33317C2.4127 8.33329 1.6665 7.5871 1.6665 6.66663V3.33329C1.6665 2.41282 2.4127 1.66663 3.33317 1.66663ZM3.33317 11.6666H16.6665C17.587 11.6666 18.3332 12.4128 18.3332 13.3333V16.6666C18.3332 17.5871 17.587 18.3333 16.6665 18.3333H3.33317C2.4127 18.3333 1.6665 17.5871 1.6665 16.6666V13.3333C1.6665 12.4128 2.4127 11.6666 3.33317 11.6666Z" stroke="#FD7E0D" stroke-width="1.66667" stroke-linecap="round" stroke-linejoin="round"/>
</svg>
